<?xml version="1.0" standalone="no"?>
<!DOCTYPE svg PUBLIC "-//W3C//DTD SVG 20010904//EN"
 "http://www.w3.org/TR/2001/REC-SVG-20010904/DTD/svg10.dtd">
<svg version="1.0" xmlns="http://www.w3.org/2000/svg"
 width="704.000000pt" height="276.000000pt" viewBox="0 0 704.000000 276.000000"
 preserveAspectRatio="xMidYMid meet">

<g transform="translate(0.000000,276.000000) scale(0.100000,-0.100000)"
fill="#000000" stroke="none">
<path d="M1631 2660 c-24 -11 -48 -20 -55 -20 -6 0 -47 -13 -90 -30 -67 -24
-86 -28 -119 -20 -35 7 -42 6 -63 -15 -13 -13 -24 -31 -24 -40 0 -19 30 -66
39 -61 3 2 5 -217 4 -487 -1 -326 2 -496 9 -504 7 -9 48 -13 135 -13 118 0
126 -1 158 -26 41 -31 74 -28 94 8 20 36 5 79 -32 92 -22 8 -33 6 -56 -12 -25
-18 -44 -21 -139 -23 -61 -1 -115 2 -121 6 -15 9 -14 352 1 361 19 12 172 3
188 -10 32 -28 66 -27 94 0 32 32 32 43 5 79 -18 22 -27 26 -52 21 -16 -3 -36
-14 -43 -23 -9 -13 -32 -19 -91 -24 -43 -3 -86 -2 -95 3 -17 8 -18 31 -18 272
l0 263 25 23 c14 13 25 29 25 36 0 19 29 44 51 44 11 0 39 9 61 20 23 11 49
20 57 20 9 1 27 7 40 14 28 15 71 9 71 -10 0 -8 7 -17 15 -20 8 -4 13 -9 10
-13 -2 -4 9 -22 25 -39 16 -18 27 -32 25 -32 -3 0 4 -15 15 -32 11 -18 20 -38
20 -43 0 -6 -27 -40 -60 -75 -52 -57 -65 -66 -111 -75 -61 -12 -74 -28 -65
-78 5 -29 13 -38 33 -43 37 -10 77 15 81 48 3 26 67 97 121 134 12 9 18 21 15
27 -4 7 -4 9 0 5 4 -3 19 0 33 7 15 8 30 12 34 10 12 -8 32 25 36 56 3 27 -15
60 -32 59 -3 0 -8 0 -12 1 -5 1 -23 0 -40 -1 -18 -1 -33 3 -33 9 0 6 -16 29
-36 51 -20 22 -33 40 -30 40 4 0 2 6 -4 13 -6 6 -20 24 -33 39 l-22 27 -44
-19z"/>
<path d="M2050 2340 c0 -6 -5 -8 -10 -5 -6 4 -10 3 -9 -2 5 -24 -41 -95 -95
-148 -35 -33 -62 -66 -61 -72 2 -7 3 -16 4 -19 0 -3 15 10 31 28 17 18 30 29
30 24 0 -4 15 9 33 31 18 21 39 40 47 42 39 10 62 8 75 -6 8 -8 20 -11 26 -7
7 4 9 3 6 -3 -6 -10 41 -70 103 -132 19 -19 28 -31 20 -26 -12 6 -12 5 -3 -5
7 -8 9 -20 3 -35 -10 -28 8 -57 36 -60 11 0 24 -4 30 -8 19 -12 62 40 56 68
-2 14 -9 22 -15 18 -6 -4 -8 0 -4 11 4 9 3 14 -2 11 -5 -3 -12 -1 -16 4 -3 5
-15 8 -27 6 -16 -4 -31 6 -55 33 -18 20 -33 41 -33 46 0 4 -7 6 -14 3 -10 -4
-13 -1 -9 9 3 7 -1 14 -8 14 -7 0 -10 3 -6 6 3 3 -8 19 -24 35 -16 16 -27 29
-23 29 3 0 0 7 -7 16 -15 19 -21 47 -8 38 5 -3 6 -10 3 -16 -4 -6 -3 -8 3 -5
15 9 9 42 -12 63 -20 21 -65 30 -65 14z"/>
<path d="M6150 2314 c-225 -61 -368 -217 -433 -472 -30 -124 -30 -379 2 -497
46 -172 128 -297 248 -378 97 -66 174 -89 307 -95 198 -8 301 32 439 170 48
48 87 91 86 95 0 5 -44 42 -98 85 l-99 76 -43 -44 c-24 -25 -73 -59 -109 -77
-58 -29 -74 -32 -155 -32 -82 0 -95 3 -145 31 -117 66 -169 178 -177 384 -8
198 22 312 108 405 60 65 117 89 214 89 102 1 169 -28 255 -112 l61 -59 99 79
100 80 -32 46 c-79 116 -206 206 -326 231 -74 15 -236 13 -302 -5z"/>
<path d="M3836 2302 c-4 -7 -315 -874 -457 -1274 l-48 -138 152 0 152 0 40
127 40 128 234 0 234 0 42 -125 42 -125 151 -3 151 -3 -13 38 c-8 21 -91 252
-184 513 -210 585 -298 830 -307 853 -6 15 -22 17 -115 17 -60 0 -111 -4 -114
-8z m189 -653 c41 -123 75 -227 75 -231 0 -10 -300 -10 -300 0 -1 11 144 461
147 458 2 -2 37 -104 78 -227z"/>
<path d="M4740 1600 l0 -710 135 0 135 0 2 282 3 283 173 3 172 2 0 135 0 135
-175 0 -175 0 0 150 0 150 275 0 276 0 -3 138 -3 137 -407 3 -408 2 0 -710z"/>
<path d="M1778 2113 c-12 -15 -17 -23 -10 -19 6 4 12 3 12 -3 0 -5 -6 -12 -12
-15 -7 -4 -2 -4 12 -2 l25 5 -25 -19 -24 -18 26 -12 26 -12 0 -144 c0 -79 -4
-142 -8 -139 -12 7 -34 -24 -34 -49 0 -29 13 -48 26 -40 7 5 9 2 6 -8 -6 -14
6 -15 65 -9 5 1 6 5 3 10 -3 5 1 11 9 15 8 3 15 16 15 28 -1 31 -25 62 -44 55
-9 -4 -18 -2 -21 4 -4 5 -1 8 7 7 7 -2 12 3 10 11 -2 8 -3 66 -4 129 -1 108 0
117 21 133 13 11 19 23 15 30 -4 8 -3 9 4 5 20 -12 13 17 -10 42 -13 14 -16
22 -8 17 11 -6 12 -5 5 3 -22 24 -62 21 -87 -5z"/>
<path d="M1306 1315 c-32 -30 -33 -58 -3 -78 l22 -14 0 -428 0 -428 93 -94
c50 -51 92 -96 92 -101 0 -4 10 -16 22 -26 19 -17 43 -19 204 -22 l184 -3 30
32 c17 18 37 39 45 48 8 9 15 20 15 26 0 5 11 20 25 33 14 13 23 26 20 28 -7
7 44 52 58 52 23 0 64 45 62 67 -4 56 -63 76 -106 37 -16 -14 -20 -27 -16 -51
4 -25 -2 -42 -29 -80 -19 -26 -34 -52 -34 -58 0 -6 -9 -16 -20 -23 -11 -7 -20
-18 -20 -25 0 -24 -44 -36 -142 -39 -79 -2 -99 0 -104 12 -3 8 -5 71 -4 139 1
111 3 126 21 138 29 21 26 78 -5 98 -29 19 -72 11 -86 -15 -15 -27 -8 -71 12
-84 16 -9 18 -28 18 -148 0 -151 4 -141 -62 -140 -29 1 -77 30 -78 48 0 6 -33
42 -74 81 -40 38 -78 83 -83 98 -5 17 -6 52 -1 84 4 31 7 110 6 177 0 66 2
126 6 132 4 7 34 12 73 12 50 0 71 -5 90 -20 66 -52 147 18 91 77 -18 19 -29
23 -52 19 -16 -4 -37 -13 -45 -20 -16 -15 -144 -26 -156 -14 -4 3 -6 84 -5
180 1 95 2 181 2 192 -1 10 2 16 5 12 12 -12 33 17 33 44 0 19 -9 36 -26 49
-34 27 -45 26 -78 -4z"/>
</g>
</svg>
